<svg width="91" height="81" viewBox="0 0 91 81" fill="none" xmlns="http://www.w3.org/2000/svg">
<path d="M0 3.79688C0 1.69277 1.69045 0 3.79167 0H10.98C14.4557 0 17.5365 2.025 18.9741 5.0625H83.9064C88.0615 5.0625 91.0948 9.01758 90.0047 13.0359L83.5273 37.1303C82.1844 42.0979 77.6818 45.5625 72.5472 45.5625H26.9682L27.8214 50.0713C28.1689 51.859 29.733 53.1562 31.5498 53.1562H77.0972C79.1984 53.1562 80.8889 54.849 80.8889 56.9531C80.8889 59.0572 79.1984 60.75 77.0972 60.75H31.5498C26.0835 60.75 21.3913 56.8582 20.3802 51.4951L12.2281 8.62207C12.1175 8.0209 11.5962 7.59375 10.98 7.59375H3.79167C1.69045 7.59375 0 5.90098 0 3.79688ZM20.2222 73.4062C20.2222 72.409 20.4184 71.4216 20.7995 70.5002C21.1806 69.5789 21.7392 68.7418 22.4433 68.0367C23.1475 67.3315 23.9835 66.7722 24.9035 66.3905C25.8236 66.0089 26.8097 65.8125 27.8056 65.8125C28.8014 65.8125 29.7875 66.0089 30.7076 66.3905C31.6276 66.7722 32.4636 67.3315 33.1678 68.0367C33.872 68.7418 34.4305 69.5789 34.8116 70.5002C35.1927 71.4216 35.3889 72.409 35.3889 73.4062C35.3889 74.4035 35.1927 75.3909 34.8116 76.3123C34.4305 77.2336 33.872 78.0707 33.1678 78.7758C32.4636 79.481 31.6276 80.0403 30.7076 80.422C29.7875 80.8036 28.8014 81 27.8056 81C26.8097 81 25.8236 80.8036 24.9035 80.422C23.9835 80.0403 23.1475 79.481 22.4433 78.7758C21.7392 78.0707 21.1806 77.2336 20.7995 76.3123C20.4184 75.3909 20.2222 74.4035 20.2222 73.4062ZM73.3056 65.8125C75.3168 65.8125 77.2456 66.6125 78.6678 68.0367C80.0899 69.4608 80.8889 71.3923 80.8889 73.4062C80.8889 75.4202 80.0899 77.3517 78.6678 78.7758C77.2456 80.2 75.3168 81 73.3056 81C71.2943 81 69.3655 80.2 67.9433 78.7758C66.5212 77.3517 65.7222 75.4202 65.7222 73.4062C65.7222 71.3923 66.5212 69.4608 67.9433 68.0367C69.3655 66.6125 71.2943 65.8125 73.3056 65.8125Z" fill="#1877F2"/>
</svg>
