<svg width="53" height="71" viewBox="0 0 53 71" fill="none" xmlns="http://www.w3.org/2000/svg">
<path fill-rule="evenodd" clip-rule="evenodd" d="M26.8913 15.3579C20.9585 15.3579 16.1407 20.1757 16.1407 26.1086C16.1407 32.0414 20.9585 36.8592 26.8913 36.8592C32.8241 36.8592 37.642 32.0414 37.642 26.1086C37.642 20.1757 32.8241 15.3579 26.8913 15.3579ZM26.8913 18.4295C31.1301 18.4295 34.5704 21.8697 34.5704 26.1086C34.5704 30.3474 31.1301 33.7876 26.8913 33.7876C22.6525 33.7876 19.2123 30.3474 19.2123 26.1086C19.2123 21.8697 22.6525 18.4295 26.8913 18.4295Z" fill="#1877F2"/>
<path fill-rule="evenodd" clip-rule="evenodd" d="M16.4018 56.3579C14.0965 53.9452 11.5578 51.0379 9.22801 47.8219C4.52691 41.3362 0.782623 33.6126 0.782623 26.1087C0.782623 11.6982 12.4809 0 26.8913 0C41.3018 0 53 11.6982 53 26.1087C53 33.6126 49.2557 41.3362 44.5546 47.8219C42.2248 51.0379 39.6861 53.9452 37.3809 56.3579C40.2098 56.9845 42.532 57.8507 44.0924 58.8536C45.9584 60.0531 46.8568 61.5244 46.8568 62.968C46.8568 64.4117 45.9584 65.883 44.0924 67.0825C40.8656 69.1558 34.3784 70.6471 26.8913 70.6471C19.4043 70.6471 12.917 69.1558 9.6903 67.0825C7.8243 65.883 6.92585 64.4117 6.92585 62.968C6.92585 61.5244 7.8243 60.0531 9.6903 58.8536C11.2507 57.8507 13.5728 56.9845 16.4018 56.3579ZM34.7915 58.9688C31.8935 61.7824 29.8078 63.4641 29.7802 63.4856C28.0939 64.8432 25.6888 64.8432 24.0025 63.4856C23.9748 63.4641 21.8892 61.7824 18.9911 58.9688C16.477 59.3819 14.3054 59.9886 12.6544 60.7396C11.7329 61.1573 10.9911 61.6104 10.4874 62.1126C10.2094 62.3921 9.99746 62.6578 9.99746 62.968C9.99746 63.2783 10.2094 63.544 10.4874 63.8235C10.9911 64.3257 11.7329 64.7787 12.6544 65.1965C15.8658 66.657 21.0507 67.5754 26.8913 67.5754C32.732 67.5754 37.9169 66.657 41.1282 65.1965C42.0497 64.7787 42.7915 64.3257 43.2953 63.8235C43.5732 63.544 43.7852 63.2783 43.7852 62.968C43.7852 62.6578 43.5732 62.3921 43.2953 62.1126C42.7915 61.6104 42.0497 61.1573 41.1282 60.7396C39.4772 59.9886 37.3056 59.3819 34.7915 58.9688ZM26.8913 3.07161C39.6063 3.07161 49.9284 13.3938 49.9284 26.1087C49.9284 33.0029 46.3868 40.0599 42.0681 46.0204C35.7514 54.7361 27.8543 61.0928 27.8543 61.0928C27.2922 61.5459 26.4905 61.5459 25.9283 61.0928C25.9283 61.0928 18.0313 54.7361 11.7145 46.0204C7.3958 40.0599 3.85423 33.0029 3.85423 26.1087C3.85423 13.3938 14.1764 3.07161 26.8913 3.07161Z" fill="#1877F2"/>
</svg>
