<svg width="20" height="35" viewBox="0 0 20 35" fill="none" xmlns="http://www.w3.org/2000/svg">
<path d="M0 9.84375C0 7.23303 1.04303 4.72923 2.89964 2.88317C4.75625 1.03711 7.27436 0 9.9 0C12.5256 0 15.0437 1.03711 16.9004 2.88317C18.757 4.72923 19.8 7.23303 19.8 9.84375C19.8 12.4545 18.757 14.9583 16.9004 16.8043C15.0437 18.6504 12.5256 19.6875 9.9 19.6875C7.27436 19.6875 4.75625 18.6504 2.89964 16.8043C1.04303 14.9583 0 12.4545 0 9.84375ZM9.9 5.46875C10.505 5.46875 11 4.97656 11 4.375C11 3.77344 10.505 3.28125 9.9 3.28125C6.25625 3.28125 3.3 6.2207 3.3 9.84375C3.3 10.4453 3.795 10.9375 4.4 10.9375C5.005 10.9375 5.5 10.4453 5.5 9.84375C5.5 7.43066 7.47312 5.46875 9.9 5.46875ZM7.7 32.8125V21.6768C8.415 21.8066 9.15063 21.875 9.9 21.875C10.6494 21.875 11.385 21.8066 12.1 21.6768V32.8125C12.1 34.0225 11.1169 35 9.9 35C8.68313 35 7.7 34.0225 7.7 32.8125Z" fill="black"/>
</svg>
