<svg width="66" height="84" viewBox="0 0 66 84" fill="none" xmlns="http://www.w3.org/2000/svg">
<path fill-rule="evenodd" clip-rule="evenodd" d="M50.7647 2.7291C50.1988 5.6851 47.986 10.681 46.1746 13.0923C44.4147 15.4353 41.487 17.7857 38.8252 18.9937L36.3972 20.0954L38.6273 21.0453C43.9353 23.3063 48.6174 29.3331 50.3727 36.1643L51.3294 39.8867L51.8701 37.2395C52.6652 33.3453 53.9427 30.5268 56.3724 27.3074C58.7519 24.1547 60.9722 22.3305 64.0084 21.0342L66 20.1837L63.7054 19.0149C60.3784 17.3208 58.7439 15.9293 56.342 12.7464C53.9237 9.54181 52.6627 6.73707 51.849 2.75079L51.2868 0L50.7647 2.7291ZM19.7886 16.2916C19.3788 17.9216 18.1705 21.4398 17.1036 24.1102C13.7189 32.5837 7.41441 39.2964 1.9608 40.2331L0 40.57L3.22692 41.7362C10.4497 44.3469 15.8493 51.7318 19.2421 63.6404L20.6158 68.4613L21.3721 65.4101C22.6129 60.4062 25.2916 54.0293 27.6724 50.4122C30.6001 45.9642 33.8658 43.1944 37.9056 41.7346L41.1367 40.5663L39.33 40.2627C36.1516 39.7285 31.6906 36.5398 28.949 32.8423C25.3351 27.968 23.7216 24.2901 20.8193 14.3077C20.6061 13.5746 20.3466 14.075 19.7886 16.2916ZM45.0351 54.9544C44.4451 57.9601 42.1454 62.7032 40.28 64.7606C39.2519 65.8946 37.4468 67.2734 36.2693 67.824L34.1275 68.8252L36.7538 70.3019C40.0525 72.1572 43.1494 76.243 44.3793 80.3631C44.86 81.973 45.2634 83.5788 45.2761 83.9315C45.2883 84.2838 45.6386 83.2418 46.0535 81.6155C47.4543 76.1293 50.8652 71.4305 54.5028 69.9761C56.2981 69.2584 57.1405 68.4412 56.0858 68.4412C54.8341 68.4412 51.4484 65.9967 49.7489 63.8663C47.9949 61.6671 46.6828 58.8359 45.8636 55.4833L45.3466 53.3677L45.0351 54.9544Z" fill="#FFDC26"/>
</svg>
